<?xml version="1.0" standalone="no"?><!DOCTYPE svg PUBLIC "-//W3C//DTD SVG 1.1//EN" "http://www.w3.org/Graphics/SVG/1.1/DTD/svg11.dtd"><svg t="1725845123535" class="icon" viewBox="0 0 1024 1024" version="1.1" xmlns="http://www.w3.org/2000/svg" p-id="1537" xmlns:xlink="http://www.w3.org/1999/xlink" width="200" height="200"><path d="M1024 1024H0V0h1024z" fill="#2c2c2c" opacity=".01" p-id="1538"></path><path d="M169.6 810.666667C146.602667 810.666667 128 791.573333 128 768V256c0-23.573333 18.624-42.666667 41.6-42.666667h684.8c22.976 0 41.6 19.093333 41.6 42.666667v512c0 23.573333-18.624 42.666667-41.6 42.666667H169.6zM422.4 750.954667l415.36-0.021334V273.066667l-415.36 0.021333v477.866667zM186.218667 750.933333l176.469333 0.021334v-477.866667L186.218667 273.066667v477.866666z m56.448-382.442666a21.333333 21.333333 0 0 1-21.333334-21.333334v-8.533333a21.333333 21.333333 0 0 1 21.333334-21.333333h59.733333a21.333333 21.333333 0 0 1 21.333333 21.333333v8.533333a21.333333 21.333333 0 0 1-21.333333 21.333334h-59.733333z m0 85.333333a21.333333 21.333333 0 0 1-21.333334-21.333333v-8.533334a21.333333 21.333333 0 0 1 21.333334-21.333333h59.733333a21.333333 21.333333 0 0 1 21.333333 21.333333v8.533334a21.333333 21.333333 0 0 1-21.333333 21.333333h-59.733333z m0 85.333333a21.333333 21.333333 0 0 1-21.333334-21.333333v-8.533333a21.333333 21.333333 0 0 1 21.333334-21.333334h59.733333a21.333333 21.333333 0 0 1 21.333333 21.333334v8.533333a21.333333 21.333333 0 0 1-21.333333 21.333333h-59.733333z" fill="#2c2c2c" p-id="1539"></path></svg>